<?xml version="1.0" standalone="no"?><!DOCTYPE svg PUBLIC "-//W3C//DTD SVG 1.1//EN" "http://www.w3.org/Graphics/SVG/1.1/DTD/svg11.dtd"><svg t="1770383889645" class="icon" viewBox="0 0 1024 1024" version="1.1" xmlns="http://www.w3.org/2000/svg" p-id="6976" xmlns:xlink="http://www.w3.org/1999/xlink" width="200" height="200"><path d="M465.92 888.035556L56.888889 803.100444v110.933334l409.031111 96.938666z" fill="#17729D" p-id="6977"></path><path d="M771.185778 914.659556L465.92 1010.915556v-120.263112l305.208889-79.644444z" fill="#39B8EC" p-id="6978"></path><path d="M352.768 727.722667L56.888889 803.043556l409.088 85.048888 305.208889-77.027555z" fill="#41D2FC" p-id="6979"></path><path d="M292.864 787.740444L120.149333 288.654222l98.702223-39.822222L414.72 816.924444z" fill="#7A96A0" p-id="6980"></path><path d="M218.851556 248.888889L414.72 816.924444l84.935111-27.192888L320.284444 248.888889z" fill="#9EB8C3" p-id="6981"></path><path d="M162.133333 109.966222l68.039111-10.069333 1.080889-0.170667-68.152889 10.069334c-0.341333 0-0.682667 0.113778-0.967111 0.170666" fill="#556369" p-id="6982"></path><path d="M163.157333 109.795556l68.096-10.069334c2.048-0.284444 4.096-0.455111 6.144-0.568889l-68.039111 10.126223a55.751111 55.751111 0 0 0-6.257778 0.568888" fill="#58676D" p-id="6983"></path><path d="M169.301333 109.283556l68.152889-10.069334a42.837333 42.837333 0 0 1 5.347556 0l-68.096 10.069334a85.617778 85.617778 0 0 0-5.404445 0" fill="#5C6B71" p-id="6984"></path><path d="M174.762667 109.283556l68.096-10.069334a23.893333 23.893333 0 0 1 2.844444 0.170667l-68.039111 10.069333-2.901333-0.170666" fill="#5F6E75" p-id="6985"></path><path d="M177.607111 109.511111c19.797333 1.706667 39.594667 12.117333 55.409778 31.232 33.962667 41.528889 36.693333 106.951111 5.859555 146.488889-16.440889 21.048889-38.968889 30.492444-61.610666 28.558222-19.911111-1.706667-40.049778-12.231111-56.149334-31.516444-33.962667-41.073778-36.295111-106.382222-5.461333-145.976889 16.497778-21.162667 39.253333-30.72 62.008889-28.785778" fill="#687980" p-id="6986"></path><path d="M177.664 109.454222L245.76 99.384889l1.991111 0.170667L179.712 109.681778 177.664 109.454222" fill="#5F6E75" p-id="6987"></path><path d="M179.655111 109.681778L247.751111 99.612444c1.536 0.170667 3.015111 0.398222 4.551111 0.682667L184.206222 110.364444a58.368 58.368 0 0 0-4.551111-0.682666" fill="#627279" p-id="6988"></path><path d="M184.263111 110.364444L252.359111 100.295111c1.422222 0.227556 2.844444 0.568889 4.323556 0.910222L188.586667 111.331556 184.263111 110.364444" fill="#65767D" p-id="6989"></path><path d="M188.529778 111.331556L256.625778 101.262222a54.954667 54.954667 0 0 1 4.096 1.137778L192.682667 112.469333C191.317333 112.014222 189.895111 111.616 188.529778 111.331556" fill="#687981" p-id="6990"></path><path d="M192.682667 112.469333L260.778667 102.4l3.982222 1.365333L196.664889 113.834667A54.897778 54.897778 0 0 0 192.682667 112.469333" fill="#6B7D85" p-id="6991"></path><path d="M196.664889 113.834667L264.760889 103.765333a54.613333 54.613333 0 0 1 3.868444 1.536L200.533333 115.427556 196.664889 113.834667" fill="#6F8188" p-id="6992"></path><path d="M200.533333 115.427556L268.686222 105.358222l3.811556 1.763556L204.401778 117.248A115.882667 115.882667 0 0 0 200.533333 115.427556" fill="#72848C" p-id="6993"></path><path d="M204.344889 117.248L272.440889 107.178667l3.754667 1.991111L208.099556 119.296A61.041778 61.041778 0 0 0 204.344889 117.248" fill="#758890" p-id="6994"></path><path d="M208.099556 119.296L276.195556 109.226667a49.607111 49.607111 0 0 1 3.697777 2.275555L211.854222 121.571556A132.096 132.096 0 0 0 208.099556 119.296" fill="#788C94" p-id="6995"></path><path d="M211.797333 121.571556L280.007111 111.502222l3.754667 2.56L215.608889 124.188444C214.357333 123.278222 213.105778 122.368 211.797333 121.571556" fill="#7B9098" p-id="6996"></path><path d="M215.608889 124.188444L283.704889 114.119111l3.811555 2.844445L219.420444 127.203556C218.168889 126.122667 216.917333 125.098667 215.608889 124.188444" fill="#7E939C" p-id="6997"></path><path d="M219.420444 127.089778L287.516444 117.020444a52.622222 52.622222 0 0 1 3.868445 3.413334L223.345778 130.389333A205.653333 205.653333 0 0 0 219.420444 127.089778" fill="#8297A0" p-id="6998"></path><path d="M223.345778 130.503111L291.441778 120.433778l4.096 3.925333L227.441778 134.485333 223.345778 130.503111" fill="#859BA4" p-id="6999"></path><path d="M227.441778 134.485333L295.537778 124.416c1.422222 1.422222 2.844444 2.958222 4.209778 4.551111L231.651556 139.093333a109.397333 109.397333 0 0 0-4.209778-4.551111" fill="#889EA8" p-id="7000"></path><path d="M231.708444 139.093333L299.690667 128.967111l1.365333 1.592889 3.470222 4.437333-68.096 10.126223a92.046222 92.046222 0 0 0-3.413333-4.437334L231.594667 139.036444" fill="#8BA2AC" p-id="7001"></path><path d="M236.487111 145.180444L304.583111 135.111111c2.161778 2.844444 4.152889 5.916444 6.030222 9.045333L242.517333 154.225778a118.954667 118.954667 0 0 0-6.030222-9.102222" fill="#8EA6B0" p-id="7002"></path><path d="M242.517333 154.225778L310.613333 144.156444c6.200889 10.353778 10.808889 21.617778 13.767111 33.393778l-68.039111 10.069334A126.293333 126.293333 0 0 0 242.517333 154.225778" fill="#91A9B3" p-id="7003"></path><path d="M256.341333 187.619556l68.096-10.069334c0.967111 3.754667 1.706667 7.566222 2.275556 11.377778l-67.982222 10.126222a127.317333 127.317333 0 0 0-2.389334-11.434666" fill="#8EA6B0" p-id="7004"></path><path d="M258.673778 199.054222l68.096-10.069333c0.455111 2.730667 0.796444 5.461333 1.137778 8.248889l-68.152889 10.069333a136.362667 136.362667 0 0 0-1.080889-8.248889" fill="#8BA2AC" p-id="7005"></path><path d="M259.754667 207.303111L327.850667 197.233778c0.227556 2.275556 0.398222 4.664889 0.455111 6.997333l-68.039111 10.126222a146.944 146.944 0 0 0-0.512-7.054222" fill="#889EA8" p-id="7006"></path><path d="M260.266667 214.300444l68.096-10.012444 0.113777 6.200889-68.096 10.126222c0-2.104889 0-4.152889-0.113777-6.257778" fill="#859BA4" p-id="7007"></path><path d="M260.380444 220.558222l68.096-10.069333c0 1.934222-0.056889 3.868444-0.170666 5.745778l-68.096 10.126222 0.170666-5.802667" fill="#8297A0" p-id="7008"></path><path d="M260.209778 226.360889l68.096-10.069333-0.398222 5.461333-68.096 10.069333 0.398222-5.461333" fill="#7E939C" p-id="7009"></path><path d="M259.811556 231.879111l68.096-10.069333a157.013333 157.013333 0 0 1-0.568889 5.12l-68.096 10.126222 0.568889-5.176889" fill="#7B9098" p-id="7010"></path><path d="M259.242667 237.056l68.096-10.069333a125.44 125.44 0 0 1-0.796445 4.892444l-68.096 10.069333 0.796445-4.892444" fill="#788C94" p-id="7011"></path><path d="M258.446222 241.948444l68.096-10.069333a142.108444 142.108444 0 0 1-0.967111 4.778667l-68.096 10.069333 0.967111-4.778667" fill="#758890" p-id="7012"></path><path d="M257.479111 246.727111L325.575111 236.771556a135.964444 135.964444 0 0 1-1.137778 4.551111l-68.096 10.183111 1.137778-4.664889" fill="#72848C" p-id="7013"></path><path d="M256.341333 251.448889l68.096-10.069333-1.365333 4.551111-68.039111 10.126222 1.308444-4.608" fill="#6F8188" p-id="7014"></path><path d="M255.032889 256l68.096-10.069333c-0.568889 1.479111-1.024 3.015111-1.536 4.551111l-68.096 10.012444c0.568889-1.479111 1.080889-2.958222 1.536-4.494222" fill="#6B7D85" p-id="7015"></path><path d="M253.496889 260.551111l68.096-10.126222-1.706667 4.551111-68.152889 10.126222 1.763556-4.551111" fill="#687981" p-id="7016"></path><path d="M251.733333 265.045333L319.886222 254.976a78.506667 78.506667 0 0 1-2.048 4.551111l-68.039111 10.069333 1.991111-4.551111" fill="#65767D" p-id="7017"></path><path d="M249.742222 269.596444l68.096-10.069333a113.834667 113.834667 0 0 1-2.332444 4.551111l-68.096 10.069334c0.853333-1.479111 1.592889-3.015111 2.275555-4.551112" fill="#627279" p-id="7018"></path><path d="M247.409778 274.147556l68.096-10.069334a207.644444 207.644444 0 0 1-2.787556 4.778667l-68.096 10.126222 2.844445-4.835555" fill="#5F6E75" p-id="7019"></path><path d="M244.622222 278.983111l68.096-10.069333c-1.080889 1.706667-2.161778 3.413333-3.356444 5.006222l-68.096 10.126222c1.194667-1.649778 2.275556-3.356444 3.413333-5.063111" fill="#5C6B71" p-id="7020"></path><path d="M241.322667 284.046222l68.096-10.069333-2.446223 3.185778a71.68 71.68 0 0 1-1.706666 2.161777l-68.039111 10.069334a68.266667 68.266667 0 0 0 1.706666-2.104889l2.389334-3.242667" fill="#58676D" p-id="7021"></path><path d="M237.169778 289.393778l68.096-10.069334a100.124444 100.124444 0 0 1-5.688889 6.200889L231.367111 295.651556c1.991111-1.991111 3.982222-4.039111 5.745778-6.257778" fill="#556369" p-id="7022"></path><path d="M231.480889 295.651556l68.096-10.069334a70.144 70.144 0 0 1-38.684445 19.683556l-68.039111 10.069333c13.937778-2.048 27.306667-8.590222 38.570667-19.683555" fill="#526065" p-id="7023"></path><path d="M151.210667 181.418667c9.898667-1.422222 20.992 2.844444 29.525333 12.629333 13.880889 15.928889 15.758222 40.163556 4.437333 54.272a25.486222 25.486222 0 0 1-16.384 9.386667c-9.898667 1.422222-20.935111-2.901333-29.525333-12.629334-13.880889-15.985778-15.758222-40.163556-4.380444-54.272a25.258667 25.258667 0 0 1 16.327111-9.386666" fill="#FFFFFF" p-id="7024"></path><path d="M678.343111 184.547556l-440.092444-29.980445 84.366222-12.629333 392.078222 20.309333z" fill="#9EB8C3" p-id="7025"></path><path d="M678.343111 184.547556l-440.092444-29.980445v89.201778l294.456889 94.321778 171.349333 63.715555z" fill="#7A96A0" p-id="7026"></path><path d="M679.936 276.764444l103.025778-30.151111 89.770666 110.762667-103.025777 30.208z" fill="#90A8B2" p-id="7027"></path><path d="M775.736889 164.750222l102.968889-30.208-95.744 112.014222-103.025778 30.208z" fill="#57656B" p-id="7028"></path><path d="M859.249778 434.176l103.025778-30.151111-100.408889 56.547555-103.025778 30.208z" fill="#4F5C62" p-id="7029"></path><path d="M860.728889 340.764444l103.025778-30.264888-1.479111 93.468444-102.968889 30.208z" fill="#81969F" p-id="7030"></path><path d="M758.897778 58.652444l105.244444 69.916445-1.479111 94.833778-86.926222-58.652445-95.744 112.014222 89.713778 110.819556 91.022222-46.876444-1.479111 93.468444-100.352 56.604444-181.475556-220.103111z" fill="#B6D0D8" p-id="7031"></path><path d="M758.897778 58.652444L861.866667 28.444444 967.111111 98.360889l-102.968889 30.208z" fill="#9EB8C3" p-id="7032"></path><path d="M864.142222 128.568889L967.111111 98.360889l-1.536 94.833778-102.968889 30.151111z" fill="#81969F" p-id="7033"></path></svg>